<svg width="498" height="115" viewBox="0 0 498 115" fill="none" xmlns="http://www.w3.org/2000/svg">
<circle cx="57.5" cy="57.5" r="57.5" fill="#4C25E6"/>
<rect x="100.589" y="11.776" width="10.4765" height="95.9338" rx="5.23824" transform="rotate(58 100.589 11.776)" fill="white"/>
<rect x="67.1072" y="57" width="10.4765" height="79.1313" rx="5.23824" transform="rotate(58 67.1072 57)" fill="white"/>
<path d="M139.064 41.544V75H134.696V41.544H139.064ZM164.353 75L150.577 59.736V75H146.209V41.544H150.577V57.048L164.401 41.544H169.921L154.753 58.296L170.064 75H164.353ZM189.811 75.336C186.707 75.336 183.875 74.616 181.315 73.176C178.755 71.704 176.723 69.672 175.219 67.08C173.747 64.456 173.011 61.512 173.011 58.248C173.011 54.984 173.747 52.056 175.219 49.464C176.723 46.84 178.755 44.808 181.315 43.368C183.875 41.896 186.707 41.16 189.811 41.16C192.947 41.16 195.795 41.896 198.355 43.368C200.915 44.808 202.931 46.824 204.403 49.416C205.875 52.008 206.611 54.952 206.611 58.248C206.611 61.544 205.875 64.488 204.403 67.08C202.931 69.672 200.915 71.704 198.355 73.176C195.795 74.616 192.947 75.336 189.811 75.336ZM189.811 71.544C192.147 71.544 194.243 71 196.099 69.912C197.987 68.824 199.459 67.272 200.515 65.256C201.603 63.24 202.147 60.904 202.147 58.248C202.147 55.56 201.603 53.224 200.515 51.24C199.459 49.224 198.003 47.672 196.147 46.584C194.291 45.496 192.179 44.952 189.811 44.952C187.443 44.952 185.331 45.496 183.475 46.584C181.619 47.672 180.147 49.224 179.059 51.24C178.003 53.224 177.475 55.56 177.475 58.248C177.475 60.904 178.003 63.24 179.059 65.256C180.147 67.272 181.619 68.824 183.475 69.912C185.363 71 187.475 71.544 189.811 71.544ZM229.693 75L221.725 61.32H216.445V75H212.077V41.544H222.877C225.405 41.544 227.533 41.976 229.261 42.84C231.021 43.704 232.333 44.872 233.197 46.344C234.061 47.816 234.493 49.496 234.493 51.384C234.493 53.688 233.821 55.72 232.477 57.48C231.165 59.24 229.181 60.408 226.525 60.984L234.925 75H229.693ZM216.445 57.816H222.877C225.245 57.816 227.021 57.24 228.205 56.088C229.389 54.904 229.981 53.336 229.981 51.384C229.981 49.4 229.389 47.864 228.205 46.776C227.053 45.688 225.277 45.144 222.877 45.144H216.445V57.816ZM256.148 75.336C253.044 75.336 250.212 74.616 247.652 73.176C245.092 71.704 243.06 69.672 241.556 67.08C240.084 64.456 239.348 61.512 239.348 58.248C239.348 54.984 240.084 52.056 241.556 49.464C243.06 46.84 245.092 44.808 247.652 43.368C250.212 41.896 253.044 41.16 256.148 41.16C259.284 41.16 262.132 41.896 264.692 43.368C267.252 44.808 269.268 46.824 270.74 49.416C272.212 52.008 272.948 54.952 272.948 58.248C272.948 61.544 272.212 64.488 270.74 67.08C269.268 69.672 267.252 71.704 264.692 73.176C262.132 74.616 259.284 75.336 256.148 75.336ZM256.148 71.544C258.484 71.544 260.58 71 262.436 69.912C264.324 68.824 265.796 67.272 266.852 65.256C267.94 63.24 268.484 60.904 268.484 58.248C268.484 55.56 267.94 53.224 266.852 51.24C265.796 49.224 264.34 47.672 262.484 46.584C260.628 45.496 258.516 44.952 256.148 44.952C253.78 44.952 251.668 45.496 249.812 46.584C247.956 47.672 246.484 49.224 245.396 51.24C244.34 53.224 243.812 55.56 243.812 58.248C243.812 60.904 244.34 63.24 245.396 65.256C246.484 67.272 247.956 68.824 249.812 69.912C251.7 71 253.812 71.544 256.148 71.544ZM288.831 41.544C292.479 41.544 295.631 42.232 298.287 43.608C300.975 44.952 303.023 46.888 304.431 49.416C305.871 51.944 306.591 54.92 306.591 58.344C306.591 61.768 305.871 64.744 304.431 67.272C303.023 69.768 300.975 71.688 298.287 73.032C295.631 74.344 292.479 75 288.831 75H278.415V41.544H288.831ZM288.831 71.4C293.151 71.4 296.447 70.264 298.719 67.992C300.991 65.688 302.127 62.472 302.127 58.344C302.127 54.184 300.975 50.936 298.671 48.6C296.399 46.264 293.119 45.096 288.831 45.096H282.783V71.4H288.831ZM316.324 41.544V62.712C316.324 65.688 317.044 67.896 318.484 69.336C319.956 70.776 321.988 71.496 324.58 71.496C327.14 71.496 329.14 70.776 330.58 69.336C332.052 67.896 332.788 65.688 332.788 62.712V41.544H337.156V62.664C337.156 65.448 336.596 67.8 335.476 69.72C334.356 71.608 332.836 73.016 330.916 73.944C329.028 74.872 326.9 75.336 324.532 75.336C322.164 75.336 320.02 74.872 318.1 73.944C316.212 73.016 314.708 71.608 313.588 69.72C312.5 67.8 311.956 65.448 311.956 62.664V41.544H316.324ZM377.232 41.544V45.096H368.112V75H363.744V45.096H354.576V41.544H377.232ZM386.677 45.096V56.28H398.869V59.88H386.677V71.4H400.309V75H382.309V41.496H400.309V45.096H386.677ZM404.986 58.248C404.986 54.984 405.722 52.056 407.194 49.464C408.666 46.84 410.666 44.792 413.194 43.32C415.754 41.848 418.586 41.112 421.69 41.112C425.338 41.112 428.522 41.992 431.242 43.752C433.962 45.512 435.946 48.008 437.194 51.24H431.962C431.034 49.224 429.69 47.672 427.93 46.584C426.202 45.496 424.122 44.952 421.69 44.952C419.354 44.952 417.258 45.496 415.402 46.584C413.546 47.672 412.09 49.224 411.034 51.24C409.978 53.224 409.45 55.56 409.45 58.248C409.45 60.904 409.978 63.24 411.034 65.256C412.09 67.24 413.546 68.776 415.402 69.864C417.258 70.952 419.354 71.496 421.69 71.496C424.122 71.496 426.202 70.968 427.93 69.912C429.69 68.824 431.034 67.272 431.962 65.256H437.194C435.946 68.456 433.962 70.936 431.242 72.696C428.522 74.424 425.338 75.288 421.69 75.288C418.586 75.288 415.754 74.568 413.194 73.128C410.666 71.656 408.666 69.624 407.194 67.032C405.722 64.44 404.986 61.512 404.986 58.248ZM469.172 41.544V75H464.804V59.832H447.764V75H443.396V41.544H447.764V56.232H464.804V41.544H469.172Z" fill="#AAAAAA"/>
<path d="M139.064 41.544H140.064V40.544H139.064V41.544ZM139.064 75V76H140.064V75H139.064ZM134.696 75H133.696V76H134.696V75ZM134.696 41.544V40.544H133.696V41.544H134.696ZM138.064 41.544V75H140.064V41.544H138.064ZM139.064 74H134.696V76H139.064V74ZM135.696 75V41.544H133.696V75H135.696ZM134.696 42.544H139.064V40.544H134.696V42.544ZM164.353 75L163.61 75.67L163.908 76H164.353V75ZM150.577 59.736L151.319 59.066L149.577 57.1354V59.736H150.577ZM150.577 75V76H151.577V75H150.577ZM146.209 75H145.209V76H146.209V75ZM146.209 41.544V40.544H145.209V41.544H146.209ZM150.577 41.544H151.577V40.544H150.577V41.544ZM150.577 57.048H149.577V59.6721L151.323 57.7135L150.577 57.048ZM164.401 41.544V40.544H163.952L163.654 40.8785L164.401 41.544ZM169.921 41.544L170.662 42.2152L172.175 40.544H169.921V41.544ZM154.753 58.296L154.011 57.6248L153.4 58.3001L154.015 58.9717L154.753 58.296ZM170.064 75V76H172.338L170.802 74.3243L170.064 75ZM165.095 74.33L151.319 59.066L149.834 60.406L163.61 75.67L165.095 74.33ZM149.577 59.736V75H151.577V59.736H149.577ZM150.577 74H146.209V76H150.577V74ZM147.209 75V41.544H145.209V75H147.209ZM146.209 42.544H150.577V40.544H146.209V42.544ZM149.577 41.544V57.048H151.577V41.544H149.577ZM151.323 57.7135L165.147 42.2095L163.654 40.8785L149.83 56.3825L151.323 57.7135ZM164.401 42.544H169.921V40.544H164.401V42.544ZM169.179 40.8728L154.011 57.6248L155.494 58.9672L170.662 42.2152L169.179 40.8728ZM154.015 58.9717L169.327 75.6757L170.802 74.3243L155.49 57.6203L154.015 58.9717ZM170.064 74H164.353V76H170.064V74ZM181.315 73.176L180.816 74.0429L180.825 74.0476L181.315 73.176ZM175.219 67.08L174.347 67.5693L174.35 67.5756L174.354 67.5819L175.219 67.08ZM175.219 49.464L174.351 48.9667L174.349 48.9702L175.219 49.464ZM181.315 43.368L181.805 44.2396L181.813 44.2349L181.315 43.368ZM198.355 43.368L197.856 44.2349L197.865 44.2396L198.355 43.368ZM204.403 49.416L205.272 48.9222L205.272 48.9222L204.403 49.416ZM198.355 73.176L198.845 74.0476L198.853 74.0429L198.355 73.176ZM196.099 69.912L195.6 69.0455L195.593 69.0493L196.099 69.912ZM200.515 65.256L199.635 64.781L199.629 64.792L200.515 65.256ZM200.515 51.24L199.629 51.704L199.633 51.7125L199.638 51.7208L200.515 51.24ZM196.147 46.584L195.641 47.4467L195.641 47.4467L196.147 46.584ZM183.475 46.584L183.981 47.4467L183.981 47.4467L183.475 46.584ZM179.059 51.24L178.179 50.7651L178.176 50.7701L179.059 51.24ZM179.059 65.256L178.173 65.72L178.179 65.7309L179.059 65.256ZM183.475 69.912L182.969 70.7747L182.976 70.7784L183.475 69.912ZM189.811 74.336C186.869 74.336 184.207 73.6554 181.805 72.3044L180.825 74.0476C183.543 75.5766 186.545 76.336 189.811 76.336V74.336ZM181.813 72.3091C179.408 70.9259 177.501 69.0208 176.084 66.5781L174.354 67.5819C175.945 70.3232 178.102 72.4821 180.816 74.0429L181.813 72.3091ZM176.091 66.5907C174.71 64.1287 174.011 61.3556 174.011 58.248H172.011C172.011 61.6684 172.784 64.7833 174.347 67.5693L176.091 66.5907ZM174.011 58.248C174.011 55.1402 174.71 52.3852 176.088 49.9578L174.349 48.9702C172.784 51.7268 172.011 54.8278 172.011 58.248H174.011ZM176.086 49.9613C177.504 47.4889 179.407 45.5884 181.805 44.2396L180.825 42.4964C178.103 44.0276 175.942 46.1911 174.351 48.9667L176.086 49.9613ZM181.813 44.2349C184.214 42.8546 186.873 42.16 189.811 42.16V40.16C186.541 40.16 183.536 40.9374 180.816 42.5011L181.813 44.2349ZM189.811 42.16C192.783 42.16 195.458 42.8555 197.856 44.2349L198.853 42.5011C196.132 40.9365 193.111 40.16 189.811 40.16V42.16ZM197.865 44.2396C200.264 45.5891 202.15 47.4734 203.533 49.9098L205.272 48.9222C203.712 46.1746 201.566 44.0269 198.845 42.4964L197.865 44.2396ZM203.533 49.9098C204.911 52.3358 205.611 55.1064 205.611 58.248H207.611C207.611 54.7976 206.839 51.6802 205.272 48.9222L203.533 49.9098ZM205.611 58.248C205.611 61.3896 204.911 64.1602 203.533 66.5862L205.272 67.5738C206.839 64.8158 207.611 61.6984 207.611 58.248H205.611ZM203.533 66.5862C202.149 69.0245 200.26 70.927 197.856 72.3091L198.853 74.0429C201.57 72.481 203.713 70.3195 205.272 67.5738L203.533 66.5862ZM197.865 72.3044C195.464 73.6545 192.787 74.336 189.811 74.336V76.336C193.107 76.336 196.125 75.5775 198.845 74.0476L197.865 72.3044ZM189.811 72.544C192.309 72.544 194.582 71.9602 196.605 70.7747L195.593 69.0493C193.904 70.0398 191.985 70.544 189.811 70.544V72.544ZM196.598 70.7784C198.658 69.5914 200.261 67.8963 201.401 65.72L199.629 64.792C198.657 66.6477 197.316 68.0566 195.6 69.0456L196.598 70.7784ZM201.395 65.7309C202.573 63.5473 203.147 61.0432 203.147 58.248H201.147C201.147 60.7648 200.632 62.9327 199.635 64.7811L201.395 65.7309ZM203.147 58.248C203.147 55.4235 202.574 52.916 201.392 50.7592L199.638 51.7208C200.631 53.532 201.147 55.6965 201.147 58.248H203.147ZM201.401 50.776C200.263 48.6042 198.68 46.9096 196.653 45.7213L195.641 47.4467C197.326 48.4344 198.655 49.8438 199.629 51.704L201.401 50.776ZM196.653 45.7213C194.628 44.5345 192.338 43.952 189.811 43.952V45.952C192.02 45.952 193.954 46.4575 195.641 47.4467L196.653 45.7213ZM189.811 43.952C187.284 43.952 184.994 44.5345 182.969 45.7213L183.981 47.4467C185.668 46.4575 187.602 45.952 189.811 45.952V43.952ZM182.969 45.7213C180.945 46.9079 179.348 48.5989 178.179 50.7651L179.939 51.7149C180.946 49.8491 182.293 48.4361 183.981 47.4467L182.969 45.7213ZM178.176 50.7701C177.029 52.9246 176.475 55.4281 176.475 58.248H178.475C178.475 55.6919 178.976 53.5234 179.942 51.7098L178.176 50.7701ZM176.475 58.248C176.475 61.0386 177.03 63.5387 178.173 65.72L179.945 64.792C178.975 62.9413 178.475 60.7694 178.475 58.248H176.475ZM178.179 65.7309C179.348 67.8971 180.945 69.5881 182.969 70.7747L183.981 69.0493C182.293 68.0599 180.946 66.6469 179.939 64.7811L178.179 65.7309ZM182.976 70.7784C185.026 71.9602 187.313 72.544 189.811 72.544V70.544C187.637 70.544 185.699 70.0398 183.974 69.0456L182.976 70.7784ZM229.693 75L228.829 75.5033L229.118 76H229.693V75ZM221.725 61.32L222.589 60.8167L222.3 60.32H221.725V61.32ZM216.445 61.32V60.32H215.445V61.32H216.445ZM216.445 75V76H217.445V75H216.445ZM212.077 75H211.077V76H212.077V75ZM212.077 41.544V40.544H211.077V41.544H212.077ZM229.261 42.84L228.814 43.7345L228.821 43.7377L229.261 42.84ZM232.477 57.48L231.682 56.873L231.676 56.8823L232.477 57.48ZM226.525 60.984L226.313 60.0067L224.951 60.3022L225.667 61.4981L226.525 60.984ZM234.925 75V76H236.69L235.783 74.4859L234.925 75ZM216.445 57.816H215.445V58.816H216.445V57.816ZM228.205 56.088L228.903 56.8048L228.912 56.7951L228.205 56.088ZM228.205 46.776L227.519 47.5031L227.529 47.5123L228.205 46.776ZM216.445 45.144V44.144H215.445V45.144H216.445ZM230.557 74.4967L222.589 60.8167L220.861 61.8233L228.829 75.5033L230.557 74.4967ZM221.725 60.32H216.445V62.32H221.725V60.32ZM215.445 61.32V75H217.445V61.32H215.445ZM216.445 74H212.077V76H216.445V74ZM213.077 75V41.544H211.077V75H213.077ZM212.077 42.544H222.877V40.544H212.077V42.544ZM222.877 42.544C225.296 42.544 227.261 42.9579 228.814 43.7344L229.708 41.9456C227.806 40.9941 225.514 40.544 222.877 40.544V42.544ZM228.821 43.7377C230.432 44.5285 231.584 45.5713 232.335 46.8502L234.06 45.8378C233.082 44.1727 231.611 42.8795 229.702 41.9423L228.821 43.7377ZM232.335 46.8502C233.099 48.1528 233.493 49.6546 233.493 51.384H235.493C235.493 49.3374 235.023 47.4792 234.06 45.8378L232.335 46.8502ZM233.493 51.384C233.493 53.4782 232.888 55.2948 231.682 56.8731L233.272 58.0869C234.755 56.1452 235.493 53.8978 235.493 51.384H233.493ZM231.676 56.8823C230.54 58.4057 228.792 59.4692 226.313 60.0067L226.737 61.9613C229.571 61.3468 231.791 60.0743 233.279 58.0777L231.676 56.8823ZM225.667 61.4981L234.067 75.5141L235.783 74.4859L227.383 60.4699L225.667 61.4981ZM234.925 74H229.693V76H234.925V74ZM216.445 58.816H222.877V56.816H216.445V58.816ZM222.877 58.816C225.393 58.816 227.464 58.2044 228.903 56.8047L227.508 55.3713C226.578 56.2756 225.098 56.816 222.877 56.816V58.816ZM228.912 56.7951C230.315 55.3925 230.981 53.5537 230.981 51.384H228.981C228.981 53.1183 228.464 54.4155 227.498 55.3809L228.912 56.7951ZM230.981 51.384C230.981 49.1905 230.319 47.3599 228.882 46.0397L227.529 47.5123C228.46 48.3681 228.981 49.6095 228.981 51.384H230.981ZM228.892 46.049C227.478 44.7139 225.404 44.144 222.877 44.144V46.144C225.15 46.144 226.628 46.6621 227.519 47.503L228.892 46.049ZM222.877 44.144H216.445V46.144H222.877V44.144ZM215.445 45.144V57.816H217.445V45.144H215.445ZM247.652 73.176L247.154 74.0429L247.162 74.0476L247.652 73.176ZM241.556 67.08L240.684 67.5693L240.688 67.5756L240.691 67.5819L241.556 67.08ZM241.556 49.464L240.689 48.9667L240.687 48.9702L241.556 49.464ZM247.652 43.368L248.143 44.2396L248.151 44.2349L247.652 43.368ZM264.692 43.368L264.194 44.2349L264.202 44.2396L264.692 43.368ZM270.74 49.416L271.61 48.9222L271.61 48.9222L270.74 49.416ZM264.692 73.176L265.183 74.0476L265.191 74.0429L264.692 73.176ZM262.436 69.912L261.937 69.0455L261.931 69.0493L262.436 69.912ZM266.852 65.256L265.972 64.781L265.967 64.792L266.852 65.256ZM266.852 51.24L265.967 51.704L265.971 51.7125L265.976 51.7208L266.852 51.24ZM262.484 46.584L261.979 47.4467L261.979 47.4467L262.484 46.584ZM249.812 46.584L250.318 47.4467L250.318 47.4467L249.812 46.584ZM245.396 51.24L244.516 50.7651L244.514 50.7701L245.396 51.24ZM245.396 65.256L244.51 65.72L244.516 65.7309L245.396 65.256ZM249.812 69.912L249.307 70.7747L249.313 70.7784L249.812 69.912ZM256.148 74.336C253.206 74.336 250.544 73.6554 248.143 72.3044L247.162 74.0476C249.88 75.5766 252.883 76.336 256.148 76.336V74.336ZM248.151 72.3091C245.745 70.9259 243.839 69.0208 242.421 66.5781L240.691 67.5819C242.282 70.3232 244.44 72.4821 247.154 74.0429L248.151 72.3091ZM242.429 66.5907C241.047 64.1287 240.348 61.3556 240.348 58.248H238.348C238.348 61.6684 239.121 64.7833 240.684 67.5693L242.429 66.5907ZM240.348 58.248C240.348 55.1402 241.047 52.3852 242.426 49.9578L240.687 48.9702C239.121 51.7268 238.348 54.8278 238.348 58.248H240.348ZM242.424 49.9613C243.841 47.4889 245.745 45.5884 248.143 44.2396L247.162 42.4964C244.44 44.0276 242.28 46.1911 240.689 48.9667L242.424 49.9613ZM248.151 44.2349C250.551 42.8546 253.21 42.16 256.148 42.16V40.16C252.879 40.16 249.873 40.9374 247.154 42.5011L248.151 44.2349ZM256.148 42.16C259.121 42.16 261.795 42.8555 264.194 44.2349L265.191 42.5011C262.47 40.9365 259.448 40.16 256.148 40.16V42.16ZM264.202 44.2396C266.601 45.5891 268.487 47.4734 269.871 49.9098L271.61 48.9222C270.05 46.1746 267.904 44.0269 265.183 42.4964L264.202 44.2396ZM269.871 49.9098C271.249 52.3358 271.948 55.1064 271.948 58.248H273.948C273.948 54.7976 273.176 51.6802 271.61 48.9222L269.871 49.9098ZM271.948 58.248C271.948 61.3896 271.249 64.1602 269.871 66.5862L271.61 67.5738C273.176 64.8158 273.948 61.6984 273.948 58.248H271.948ZM269.871 66.5862C268.486 69.0245 266.598 70.927 264.194 72.3091L265.191 74.0429C267.907 72.481 270.051 70.3195 271.61 67.5738L269.871 66.5862ZM264.202 72.3044C261.802 73.6545 259.125 74.336 256.148 74.336V76.336C259.444 76.336 262.463 75.5775 265.183 74.0476L264.202 72.3044ZM256.148 72.544C258.646 72.544 260.92 71.9602 262.942 70.7747L261.931 69.0493C260.241 70.0398 258.322 70.544 256.148 70.544V72.544ZM262.936 70.7784C264.996 69.5914 266.598 67.8963 267.738 65.72L265.967 64.792C264.994 66.6477 263.653 68.0566 261.937 69.0456L262.936 70.7784ZM267.732 65.7309C268.911 63.5473 269.484 61.0432 269.484 58.248H267.484C267.484 60.7648 266.97 62.9327 265.972 64.7811L267.732 65.7309ZM269.484 58.248C269.484 55.4235 268.912 52.916 267.729 50.7592L265.976 51.7208C266.969 53.532 267.484 55.6965 267.484 58.248H269.484ZM267.738 50.776C266.601 48.6042 265.017 46.9096 262.99 45.7213L261.979 47.4467C263.664 48.4344 264.992 49.8438 265.967 51.704L267.738 50.776ZM262.99 45.7213C260.966 44.5345 258.676 43.952 256.148 43.952V45.952C258.357 45.952 260.291 46.4575 261.979 47.4467L262.99 45.7213ZM256.148 43.952C253.621 43.952 251.331 44.5345 249.307 45.7213L250.318 47.4467C252.006 46.4575 253.94 45.952 256.148 45.952V43.952ZM249.307 45.7213C247.282 46.9079 245.685 48.5989 244.516 50.7651L246.276 51.7149C247.283 49.8491 248.63 48.4361 250.318 47.4467L249.307 45.7213ZM244.514 50.7701C243.367 52.9246 242.812 55.4281 242.812 58.248H244.812C244.812 55.6919 245.314 53.5234 246.279 51.7098L244.514 50.7701ZM242.812 58.248C242.812 61.0386 243.368 63.5387 244.511 65.72L246.282 64.792C245.313 62.9413 244.812 60.7694 244.812 58.248H242.812ZM244.516 65.7309C245.685 67.8971 247.282 69.5881 249.307 70.7747L250.318 69.0493C248.63 68.0599 247.283 66.6469 246.276 64.7811L244.516 65.7309ZM249.313 70.7784C251.364 71.9602 253.65 72.544 256.148 72.544V70.544C253.975 70.544 252.037 70.0398 250.312 69.0456L249.313 70.7784ZM298.287 43.608L297.827 44.4959L297.833 44.4992L297.84 44.5024L298.287 43.608ZM304.431 49.416L303.557 49.9026L303.562 49.911L304.431 49.416ZM304.431 67.272L303.562 66.777L303.56 66.7807L304.431 67.272ZM298.287 73.032L298.73 73.9286L298.734 73.9264L298.287 73.032ZM278.415 75H277.415V76H278.415V75ZM278.415 41.544V40.544H277.415V41.544H278.415ZM298.719 67.992L299.426 68.6991L299.431 68.6941L298.719 67.992ZM298.671 48.6L297.954 49.2972L297.959 49.3022L298.671 48.6ZM282.783 45.096V44.096H281.783V45.096H282.783ZM282.783 71.4H281.783V72.4H282.783V71.4ZM288.831 42.544C292.353 42.544 295.341 43.208 297.827 44.4959L298.747 42.7201C295.921 41.256 292.604 40.544 288.831 40.544V42.544ZM297.84 44.5024C300.355 45.7601 302.251 47.5574 303.557 49.9026L305.304 48.9294C303.795 46.2186 301.595 44.1439 298.734 42.7136L297.84 44.5024ZM303.562 49.911C304.902 52.2634 305.591 55.0627 305.591 58.344H307.591C307.591 54.7773 306.84 51.6246 305.3 48.921L303.562 49.911ZM305.591 58.344C305.591 61.6253 304.902 64.4246 303.562 66.777L305.3 67.767C306.84 65.0634 307.591 61.9107 307.591 58.344H305.591ZM303.56 66.7807C302.255 69.0944 300.358 70.8781 297.84 72.1376L298.734 73.9264C301.591 72.4979 303.791 70.4416 305.302 67.7633L303.56 66.7807ZM297.844 72.1354C295.354 73.3655 292.36 74 288.831 74V76C292.597 76 295.908 75.3225 298.73 73.9286L297.844 72.1354ZM288.831 74H278.415V76H288.831V74ZM279.415 75V41.544H277.415V75H279.415ZM278.415 42.544H288.831V40.544H278.415V42.544ZM288.831 72.4C293.322 72.4 296.909 71.2161 299.426 68.6991L298.012 67.2849C295.985 69.3119 292.98 70.4 288.831 70.4V72.4ZM299.431 68.6941C301.934 66.1552 303.127 62.6589 303.127 58.344H301.127C301.127 62.2851 300.047 65.2208 298.007 67.2899L299.431 68.6941ZM303.127 58.344C303.127 53.995 301.917 50.4676 299.383 47.8978L297.959 49.3022C300.032 51.4044 301.127 54.373 301.127 58.344H303.127ZM299.388 47.9028C296.873 45.3176 293.3 44.096 288.831 44.096V46.096C292.938 46.096 295.924 47.2104 297.954 49.2972L299.388 47.9028ZM288.831 44.096H282.783V46.096H288.831V44.096ZM281.783 45.096V71.4H283.783V45.096H281.783ZM282.783 72.4H288.831V70.4H282.783V72.4ZM316.324 41.544H317.324V40.544H316.324V41.544ZM318.484 69.336L317.777 70.0431L317.785 70.0508L318.484 69.336ZM330.58 69.336L329.881 68.6211L329.873 68.6289L330.58 69.336ZM332.788 41.544V40.544H331.788V41.544H332.788ZM337.156 41.544H338.156V40.544H337.156V41.544ZM335.476 69.72L336.336 70.2302L336.34 70.2239L335.476 69.72ZM330.916 73.944L330.481 73.0436L330.475 73.0466L330.916 73.944ZM318.1 73.944L317.659 74.8415L317.665 74.8443L318.1 73.944ZM313.588 69.72L312.718 70.213L312.723 70.2217L312.728 70.2302L313.588 69.72ZM311.956 41.544V40.544H310.956V41.544H311.956ZM315.324 41.544V62.712H317.324V41.544H315.324ZM315.324 62.712C315.324 65.831 316.078 68.344 317.777 70.0431L319.191 68.6289C318.01 67.448 317.324 65.545 317.324 62.712H315.324ZM317.785 70.0508C319.489 71.7179 321.798 72.496 324.58 72.496V70.496C322.179 70.496 320.423 69.8341 319.184 68.6212L317.785 70.0508ZM324.58 72.496C327.334 72.496 329.614 71.716 331.287 70.0431L329.873 68.6289C328.666 69.836 326.947 70.496 324.58 70.496V72.496ZM331.28 70.0508C333.016 68.3525 333.788 65.8365 333.788 62.712H331.788C331.788 65.5395 331.089 67.4395 329.881 68.6212L331.28 70.0508ZM333.788 62.712V41.544H331.788V62.712H333.788ZM332.788 42.544H337.156V40.544H332.788V42.544ZM336.156 41.544V62.664H338.156V41.544H336.156ZM336.156 62.664C336.156 65.3151 335.623 67.4832 334.612 69.2161L336.34 70.2239C337.569 68.1168 338.156 65.5809 338.156 62.664H336.156ZM334.616 69.2098C333.593 70.9341 332.219 72.2038 330.481 73.0437L331.351 74.8443C333.454 73.8282 335.119 72.2819 336.336 70.2302L334.616 69.2098ZM330.475 73.0466C328.741 73.899 326.767 74.336 324.532 74.336V76.336C327.034 76.336 329.316 75.845 331.357 74.8414L330.475 73.0466ZM324.532 74.336C322.298 74.336 320.305 73.8991 318.535 73.0437L317.665 74.8443C319.735 75.8449 322.03 76.336 324.532 76.336V74.336ZM318.541 73.0466C316.835 72.2081 315.474 70.9384 314.448 69.2098L312.728 70.2302C313.943 72.2776 315.589 73.8239 317.659 74.8414L318.541 73.0466ZM314.458 69.227C313.475 67.4918 312.956 65.3196 312.956 62.664H310.956C310.956 65.5764 311.526 68.1082 312.718 70.213L314.458 69.227ZM312.956 62.664V41.544H310.956V62.664H312.956ZM311.956 42.544H316.324V40.544H311.956V42.544ZM377.232 41.544H378.232V40.544H377.232V41.544ZM377.232 45.096V46.096H378.232V45.096H377.232ZM368.112 45.096V44.096H367.112V45.096H368.112ZM368.112 75V76H369.112V75H368.112ZM363.744 75H362.744V76H363.744V75ZM363.744 45.096H364.744V44.096H363.744V45.096ZM354.576 45.096H353.576V46.096H354.576V45.096ZM354.576 41.544V40.544H353.576V41.544H354.576ZM376.232 41.544V45.096H378.232V41.544H376.232ZM377.232 44.096H368.112V46.096H377.232V44.096ZM367.112 45.096V75H369.112V45.096H367.112ZM368.112 74H363.744V76H368.112V74ZM364.744 75V45.096H362.744V75H364.744ZM363.744 44.096H354.576V46.096H363.744V44.096ZM355.576 45.096V41.544H353.576V45.096H355.576ZM354.576 42.544H377.232V40.544H354.576V42.544ZM386.677 45.096V44.096H385.677V45.096H386.677ZM386.677 56.28H385.677V57.28H386.677V56.28ZM398.869 56.28H399.869V55.28H398.869V56.28ZM398.869 59.88V60.88H399.869V59.88H398.869ZM386.677 59.88V58.88H385.677V59.88H386.677ZM386.677 71.4H385.677V72.4H386.677V71.4ZM400.309 71.4H401.309V70.4H400.309V71.4ZM400.309 75V76H401.309V75H400.309ZM382.309 75H381.309V76H382.309V75ZM382.309 41.496V40.496H381.309V41.496H382.309ZM400.309 41.496H401.309V40.496H400.309V41.496ZM400.309 45.096V46.096H401.309V45.096H400.309ZM385.677 45.096V56.28H387.677V45.096H385.677ZM386.677 57.28H398.869V55.28H386.677V57.28ZM397.869 56.28V59.88H399.869V56.28H397.869ZM398.869 58.88H386.677V60.88H398.869V58.88ZM385.677 59.88V71.4H387.677V59.88H385.677ZM386.677 72.4H400.309V70.4H386.677V72.4ZM399.309 71.4V75H401.309V71.4H399.309ZM400.309 74H382.309V76H400.309V74ZM383.309 75V41.496H381.309V75H383.309ZM382.309 42.496H400.309V40.496H382.309V42.496ZM399.309 41.496V45.096H401.309V41.496H399.309ZM400.309 44.096H386.677V46.096H400.309V44.096ZM407.194 49.464L408.063 49.9578L408.066 49.9533L407.194 49.464ZM413.194 43.32L412.695 42.4531L412.691 42.4558L413.194 43.32ZM431.242 43.752L431.785 42.9124L431.785 42.9124L431.242 43.752ZM437.194 51.24V52.24H438.652L438.127 50.8798L437.194 51.24ZM431.962 51.24L431.053 51.6581L431.321 52.24H431.962V51.24ZM427.93 46.584L427.397 47.4303L427.404 47.4346L427.93 46.584ZM415.402 46.584L415.908 47.4467L415.908 47.4467L415.402 46.584ZM411.034 51.24L411.917 51.7099L411.92 51.704L411.034 51.24ZM411.034 65.256L410.148 65.72L410.151 65.7258L411.034 65.256ZM415.402 69.864L415.908 69.0013L415.908 69.0013L415.402 69.864ZM427.93 69.912L428.451 70.7653L428.456 70.7626L427.93 69.912ZM431.962 65.256V64.256H431.321L431.053 64.8379L431.962 65.256ZM437.194 65.256L438.126 65.6193L438.657 64.256H437.194V65.256ZM431.242 72.696L431.778 73.5401L431.785 73.5356L431.242 72.696ZM413.194 73.128L412.691 73.9922L412.697 73.9959L412.704 73.9996L413.194 73.128ZM407.194 67.032L408.063 66.5382L407.194 67.032ZM405.986 58.248C405.986 55.1402 406.685 52.3852 408.063 49.9578L406.324 48.9702C404.759 51.7268 403.986 54.8278 403.986 58.248H405.986ZM408.066 49.9533C409.453 47.4803 411.328 45.5637 413.697 44.1842L412.691 42.4558C410.004 44.0203 407.878 46.1997 406.322 48.9747L408.066 49.9533ZM413.692 44.1869C416.093 42.8066 418.752 42.112 421.69 42.112V40.112C418.42 40.112 415.415 40.8894 412.695 42.4531L413.692 44.1869ZM421.69 42.112C425.17 42.112 428.16 42.9491 430.699 44.5916L431.785 42.9124C428.883 41.0349 425.506 40.112 421.69 40.112V42.112ZM430.699 44.5916C433.229 46.2288 435.083 48.5506 436.261 51.6002L438.127 50.8798C436.808 47.4654 434.695 44.7952 431.785 42.9124L430.699 44.5916ZM437.194 50.24H431.962V52.24H437.194V50.24ZM432.87 50.8219C431.866 48.6408 430.395 46.9324 428.456 45.7334L427.404 47.4346C428.984 48.4116 430.201 49.8072 431.053 51.6581L432.87 50.8219ZM428.463 45.7378C426.547 44.5315 424.274 43.952 421.69 43.952V45.952C423.97 45.952 425.857 46.4605 427.397 47.4302L428.463 45.7378ZM421.69 43.952C419.192 43.952 416.919 44.5358 414.896 45.7213L415.908 47.4467C417.597 46.4562 419.516 45.952 421.69 45.952V43.952ZM414.896 45.7213C412.869 46.9096 411.286 48.6042 410.148 50.776L411.92 51.704C412.894 49.8438 414.223 48.4344 415.908 47.4467L414.896 45.7213ZM410.151 50.7701C409.004 52.9246 408.45 55.4281 408.45 58.248H410.45C410.45 55.6919 410.951 53.5234 411.917 51.7098L410.151 50.7701ZM408.45 58.248C408.45 61.0386 409.005 63.5387 410.148 65.72L411.92 64.792C410.95 62.9413 410.45 60.7694 410.45 58.248H408.45ZM410.151 65.7258C411.29 67.8655 412.873 69.5409 414.896 70.7267L415.908 69.0013C414.218 68.0111 412.89 66.6145 411.917 64.7862L410.151 65.7258ZM414.896 70.7267C416.919 71.9122 419.192 72.496 421.69 72.496V70.496C419.516 70.496 417.597 69.9918 415.908 69.0013L414.896 70.7267ZM421.69 72.496C424.269 72.496 426.537 71.9349 428.451 70.7653L427.408 69.0587C425.866 70.0011 423.975 70.496 421.69 70.496V72.496ZM428.456 70.7626C430.395 69.5636 431.866 67.8552 432.87 65.6741L431.053 64.8379C430.201 66.6888 428.984 68.0844 427.404 69.0614L428.456 70.7626ZM431.962 66.256H437.194V64.256H431.962V66.256ZM436.262 64.8927C435.086 67.9096 433.231 70.2175 430.699 71.8564L431.785 73.5356C434.692 71.6545 436.806 69.0024 438.126 65.6193L436.262 64.8927ZM430.706 71.8519C428.166 73.4651 425.174 74.288 421.69 74.288V76.288C425.502 76.288 428.877 75.3829 431.778 73.5401L430.706 71.8519ZM421.69 74.288C418.748 74.288 416.086 73.6074 413.684 72.2564L412.704 73.9996C415.422 75.5286 418.424 76.288 421.69 76.288V74.288ZM413.697 72.2638C411.325 70.8825 409.45 68.9796 408.063 66.5382L406.324 67.5258C407.882 70.2684 410.007 72.4295 412.691 73.9922L413.697 72.2638ZM408.063 66.5382C406.685 64.1108 405.986 61.3558 405.986 58.248H403.986C403.986 61.6682 404.759 64.7692 406.324 67.5258L408.063 66.5382ZM469.172 41.544H470.172V40.544H469.172V41.544ZM469.172 75V76H470.172V75H469.172ZM464.804 75H463.804V76H464.804V75ZM464.804 59.832H465.804V58.832H464.804V59.832ZM447.764 59.832V58.832H446.764V59.832H447.764ZM447.764 75V76H448.764V75H447.764ZM443.396 75H442.396V76H443.396V75ZM443.396 41.544V40.544H442.396V41.544H443.396ZM447.764 41.544H448.764V40.544H447.764V41.544ZM447.764 56.232H446.764V57.232H447.764V56.232ZM464.804 56.232V57.232H465.804V56.232H464.804ZM464.804 41.544V40.544H463.804V41.544H464.804ZM468.172 41.544V75H470.172V41.544H468.172ZM469.172 74H464.804V76H469.172V74ZM465.804 75V59.832H463.804V75H465.804ZM464.804 58.832H447.764V60.832H464.804V58.832ZM446.764 59.832V75H448.764V59.832H446.764ZM447.764 74H443.396V76H447.764V74ZM444.396 75V41.544H442.396V75H444.396ZM443.396 42.544H447.764V40.544H443.396V42.544ZM446.764 41.544V56.232H448.764V41.544H446.764ZM447.764 57.232H464.804V55.232H447.764V57.232ZM465.804 56.232V41.544H463.804V56.232H465.804ZM464.804 42.544H469.172V40.544H464.804V42.544Z" fill="black"/>
</svg>
